<?xml version="1.0" standalone="no"?><!DOCTYPE svg PUBLIC "-//W3C//DTD SVG 1.1//EN" "http://www.w3.org/Graphics/SVG/1.1/DTD/svg11.dtd"><svg class="icon" height="512" viewBox="0 0 1024 1024" version="1.1" xmlns="http://www.w3.org/2000/svg"><path d="M365.537 866.519c12.473 0 22.62 10.148 22.62 22.62 0 12.473-10.148 22.62-22.62 22.62s-22.62-10.148-22.62-22.62c0-12.472 10.147-22.62 22.62-22.62m0-45.24c-37.478 0-67.86 30.382-67.86 67.86 0 37.477 30.382 67.86 67.86 67.86 37.478 0 67.86-30.383 67.86-67.86 0-37.478-30.382-67.86-67.86-67.86zM775.686 866.519c12.473 0 22.62 10.148 22.62 22.62 0 12.473-10.148 22.62-22.62 22.62-12.473 0-22.62-10.148-22.62-22.62 0-12.472 10.147-22.62 22.62-22.62m0-45.24c-37.478 0-67.86 30.382-67.86 67.86 0 37.477 30.382 67.86 67.86 67.86 37.477 0 67.86-30.383 67.86-67.86 0-37.478-30.383-67.86-67.86-67.86zM705.742 474.436c0 12.493-10.127 22.62-22.62 22.62H456.92c-12.493 0-22.62-10.127-22.62-22.62s10.127-22.62 22.62-22.62h226.202c12.492 0 22.62 10.127 22.62 22.62zM705.742 578.112c0 12.493-10.127 22.62-22.62 22.62H456.92c-12.493 0-22.62-10.127-22.62-22.62s10.127-22.62 22.62-22.62h226.202c12.492 0 22.62 10.127 22.62 22.62z" fill="#ffffff" /><path d="M932.027 282.68c-16.048-21.935-43.109-34.516-74.255-34.516h-498.3v45.24h498.299c16.799 0 30.197 5.677 37.741 15.982 7.5 10.272 8.858 24.675 3.799 40.579l-96.268 302.964c-12.094 38.083-56.142 70.268-96.191 70.268H397.836c-40.038 0-84.097-32.185-96.191-70.268l-71.196-224.085c-0.101-0.387-0.003-0.769-0.126-1.154L120.686 82.774c-3.784-11.905-16.504-18.489-28.409-14.705-11.907 3.784-18.491 16.504-14.705 28.409l84.787 266.742h-0.184c0.047 0.148 0.046 0.294 0.092 0.442l96.257 302.964c18.136 57.103 79.336 101.813 139.311 101.813h309.017c59.985 0 121.186-44.732 139.311-101.813l96.268-302.964c9.4-29.579 5.6-59.091-10.404-80.982z" fill="#ffffff" /></svg>